<svg width="14" height="11" viewBox="0 0 14 11" fill="none" xmlns="http://www.w3.org/2000/svg">
<path d="M4.29297 6.1875H5.30469L4.8125 4.73828L4.29297 6.1875ZM9.625 5.75C9.24219 5.75 8.96875 6.05078 8.96875 6.40625C8.96875 6.78906 9.24219 7.0625 9.625 7.0625C9.98047 7.0625 10.2812 6.78906 10.2812 6.40625C10.2812 6.05078 9.98047 5.75 9.625 5.75ZM12.6875 0.5H1.3125C0.574219 0.5 0 1.10156 0 1.8125V9.6875C0 10.4258 0.574219 11 1.3125 11H12.6875C13.3984 11 14 10.4258 14 9.6875V1.8125C14 1.10156 13.3984 0.5 12.6875 0.5ZM6.83594 8.375H6.37109C6.17969 8.375 6.01562 8.26562 5.96094 8.10156L5.76953 7.5H3.82812L3.63672 8.10156C3.58203 8.26562 3.41797 8.40234 3.22656 8.40234V8.375H2.76172C2.46094 8.375 2.24219 8.10156 2.35156 7.80078L3.82812 3.58984C3.91016 3.31641 4.15625 3.125 4.42969 3.125H5.16797C5.44141 3.125 5.6875 3.31641 5.79688 3.58984L7.24609 7.80078C7.35547 8.10156 7.13672 8.375 6.83594 8.375ZM11.5938 7.9375C11.5938 8.18359 11.375 8.375 11.1562 8.375H10.7188C10.582 8.375 10.4453 8.32031 10.3906 8.23828C10.1445 8.32031 9.87109 8.375 9.625 8.375C8.53125 8.375 7.65625 7.5 7.65625 6.40625C7.65625 5.33984 8.53125 4.4375 9.625 4.4375C9.84375 4.4375 10.0625 4.49219 10.2812 4.57422V3.5625C10.2812 3.34375 10.4727 3.125 10.7188 3.125H11.1562C11.375 3.125 11.5938 3.34375 11.5938 3.5625V7.9375Z" fill="#0A2240"/>
</svg>
