<svg width="24" height="29" viewBox="0 0 24 29" fill="none" xmlns="http://www.w3.org/2000/svg">
<path d="M13.4453 14.5C12.7422 13.8672 11.6875 13.8672 11.0547 14.5L1.49219 24.0625C0.789062 24.7656 0.789062 25.8203 1.49219 26.4531L3.03906 28.0703C3.74219 28.7031 4.79688 28.7031 5.42969 28.0703L12.25 21.25L19 28.0703C19.6328 28.7031 20.7578 28.7031 21.3906 28.0703L23.0078 26.4531C23.6406 25.8203 23.6406 24.7656 23.0078 24.0625L13.4453 14.5ZM11.0547 1L1.49219 10.5625C0.789062 11.2656 0.789062 12.3203 1.49219 12.9531L3.03906 14.5703C3.74219 15.2031 4.79688 15.2031 5.42969 14.5703L12.1797 7.75L19 14.5703C19.6328 15.2031 20.6875 15.2031 21.3906 14.5703L22.9375 12.9531C23.6406 12.3203 23.6406 11.1953 22.9375 10.5625L13.375 1C12.7422 0.367188 11.6875 0.367188 11.0547 1Z" fill="#EC6746"/>
</svg>
