<svg width="38" height="37" viewBox="0 0 38 37" fill="none" xmlns="http://www.w3.org/2000/svg">
<path d="M36.8594 31.8594L31.7266 11.3281C31.4453 10.2734 30.5312 9.57031 29.5469 9.57031H25.3281C25.5391 8.79688 25.75 8.09375 25.75 7.32031C25.75 3.52344 22.7266 0.570312 19 0.570312C15.2031 0.570312 12.25 3.52344 12.25 7.32031C12.25 8.09375 12.3906 8.79688 12.6016 9.57031H8.38281C7.39844 9.57031 6.48438 10.2734 6.20312 11.3281L1.07031 31.8594C0.507812 34.25 2.125 36.5 4.375 36.5H33.5547C35.8047 36.5 37.4219 34.25 36.8594 31.8594ZM19 9.5C17.7344 9.5 16.75 8.51562 16.75 7.25C16.75 6.05469 17.7344 5 19 5C20.1953 5 21.25 6.05469 21.25 7.25C21.25 8.51562 20.1953 9.5 19 9.5Z" fill="#EC6746"/>
</svg>
