<svg width="14" height="11" viewBox="0 0 14 11" fill="none" xmlns="http://www.w3.org/2000/svg">
<path d="M7.875 2.33203V1.8125H8.3125C8.53125 1.8125 8.75 1.62109 8.75 1.375V0.9375C8.75 0.71875 8.53125 0.5 8.3125 0.5H5.6875C5.44141 0.5 5.25 0.71875 5.25 0.9375V1.375C5.25 1.62109 5.44141 1.8125 5.6875 1.8125H6.125V2.33203C3.14453 2.76953 0.875 5.3125 0.875 8.375H13.125C13.125 5.3125 10.8281 2.76953 7.875 2.33203ZM13.5625 9.25H0.4375C0.191406 9.25 0 9.46875 0 9.6875V10.5625C0 10.8086 0.191406 11 0.4375 11H13.5625C13.7812 11 14 10.8086 14 10.5625V9.6875C14 9.46875 13.7812 9.25 13.5625 9.25Z" fill="#0A2240"/>
</svg>
