<svg width="41" height="33" viewBox="0 0 41 33" fill="none" xmlns="http://www.w3.org/2000/svg">
<path d="M37.6562 25.7109C39.5547 23.8125 40.75 21.4219 40.75 18.75C40.75 13.125 35.3359 8.48438 28.3047 7.71094C26.125 3.63281 20.9219 0.75 14.875 0.75C6.78906 0.75 0.25 5.8125 0.25 12C0.25 14.6016 1.375 16.9922 3.34375 18.9609C2.21875 21.0703 0.671875 22.7578 0.671875 22.8281C0.25 23.25 0.109375 23.9531 0.320312 24.5859C0.601562 25.1484 1.16406 25.5703 1.86719 25.5703C5.59375 25.5703 8.61719 24.0938 10.6562 22.8281C11.2891 22.9688 11.9922 23.0391 12.625 23.1797C14.875 27.1875 20.0078 30 26.125 30C27.5312 30 28.9375 29.8594 30.2734 29.5781C32.3125 30.8438 35.3359 32.25 39.1328 32.25C39.7656 32.25 40.3281 31.8984 40.6094 31.2656C40.8203 30.7031 40.75 30 40.2578 29.5078C40.2578 29.5078 38.7109 27.8203 37.6562 25.7109ZM10.0234 19.1719L8.82812 19.9453C7.84375 20.6484 6.78906 21.1406 5.80469 21.4922C5.94531 21.1406 6.15625 20.7891 6.36719 20.4375L7.42188 18.2578L5.66406 16.5C4.75 15.5859 3.625 14.0391 3.625 12C3.625 7.78125 8.75781 4.125 14.875 4.125C20.9219 4.125 26.125 7.78125 26.125 12C26.125 16.2891 20.9219 19.875 14.875 19.875C13.6797 19.875 12.5547 19.8047 11.4297 19.5234L10.0234 19.1719ZM35.2656 23.25L33.5078 25.0078L34.6328 27.1875C34.7734 27.5391 34.9844 27.8906 35.1953 28.2422C34.1406 27.8906 33.1562 27.3281 32.1719 26.6953L30.9062 25.9219L29.5703 26.2734C28.4453 26.5547 27.25 26.625 26.125 26.625C22.3281 26.625 18.8828 25.2188 16.8438 23.1797C24.0156 22.4062 29.5 17.6953 29.5 12C29.5 11.7891 29.4297 11.5781 29.4297 11.2969C33.9297 12.3516 37.375 15.3047 37.375 18.75C37.375 20.7891 36.1797 22.3359 35.2656 23.25Z" fill="#EC6746"/>
</svg>
