<svg width="32" height="37" viewBox="0 0 32 37" fill="none" xmlns="http://www.w3.org/2000/svg">
<path d="M10.6562 20.75C11.0781 20.75 11.5 20.3984 11.5 19.9062V17.0938C11.5 16.6719 11.0781 16.25 10.6562 16.25H7.84375C7.35156 16.25 7 16.6719 7 17.0938V19.9062C7 20.3984 7.35156 20.75 7.84375 20.75H10.6562ZM18.25 19.9062V17.0938C18.25 16.6719 17.8281 16.25 17.4062 16.25H14.5938C14.1016 16.25 13.75 16.6719 13.75 17.0938V19.9062C13.75 20.3984 14.1016 20.75 14.5938 20.75H17.4062C17.8281 20.75 18.25 20.3984 18.25 19.9062ZM25 19.9062V17.0938C25 16.6719 24.5781 16.25 24.1562 16.25H21.3438C20.8516 16.25 20.5 16.6719 20.5 17.0938V19.9062C20.5 20.3984 20.8516 20.75 21.3438 20.75H24.1562C24.5781 20.75 25 20.3984 25 19.9062ZM18.25 26.6562V23.8438C18.25 23.4219 17.8281 23 17.4062 23H14.5938C14.1016 23 13.75 23.4219 13.75 23.8438V26.6562C13.75 27.1484 14.1016 27.5 14.5938 27.5H17.4062C17.8281 27.5 18.25 27.1484 18.25 26.6562ZM11.5 26.6562V23.8438C11.5 23.4219 11.0781 23 10.6562 23H7.84375C7.35156 23 7 23.4219 7 23.8438V26.6562C7 27.1484 7.35156 27.5 7.84375 27.5H10.6562C11.0781 27.5 11.5 27.1484 11.5 26.6562ZM25 26.6562V23.8438C25 23.4219 24.5781 23 24.1562 23H21.3438C20.8516 23 20.5 23.4219 20.5 23.8438V26.6562C20.5 27.1484 20.8516 27.5 21.3438 27.5H24.1562C24.5781 27.5 25 27.1484 25 26.6562ZM31.75 8.375C31.75 6.54688 30.2031 5 28.375 5H25V1.34375C25 0.921875 24.5781 0.5 24.1562 0.5H21.3438C20.8516 0.5 20.5 0.921875 20.5 1.34375V5H11.5V1.34375C11.5 0.921875 11.0781 0.5 10.6562 0.5H7.84375C7.35156 0.5 7 0.921875 7 1.34375V5H3.625C1.72656 5 0.25 6.54688 0.25 8.375V33.125C0.25 35.0234 1.72656 36.5 3.625 36.5H28.375C30.2031 36.5 31.75 35.0234 31.75 33.125V8.375ZM28.375 32.7031C28.375 32.9844 28.1641 33.125 27.9531 33.125H4.04688C3.76562 33.125 3.625 32.9844 3.625 32.7031V11.75H28.375V32.7031Z" fill="#EC6746"/>
</svg>
