<svg width="45" height="37" viewBox="0 0 45 37" fill="none" xmlns="http://www.w3.org/2000/svg">
<path d="M43.875 32H36V4.08594C36 2.11719 34.4531 0.5 32.625 0.5H12.3047C10.4766 0.5 8.92969 2.11719 8.92969 4.08594V32H1.125C0.492188 32 0 32.5625 0 33.125V35.375C0 36.0078 0.492188 36.5 1.125 36.5H43.875C44.4375 36.5 45 36.0078 45 35.375V33.125C45 32.5625 44.4375 32 43.875 32ZM29.1797 20.75C27.9844 20.75 26.9297 19.7656 26.9297 18.5C26.9297 17.3047 27.9844 16.25 29.1797 16.25C30.4453 16.25 31.4297 17.3047 31.4297 18.5C31.5 19.7656 30.4453 20.75 29.1797 20.75Z" fill="#EC6746"/>
</svg>
