<svg width="41" height="33" viewBox="0 0 41 33" fill="none" xmlns="http://www.w3.org/2000/svg">
<path d="M40.1875 12C38.1484 12.0703 30.6953 12.4922 25.1406 17.8359C22.8203 19.9453 21.4141 22.3359 20.5 24.5156C19.5156 22.3359 18.1094 19.9453 15.7891 17.8359C10.2344 12.4922 2.78125 12.0703 0.742188 12C0.460938 12 0.179688 12.2812 0.25 12.5625C0.25 14.5312 0.742188 21.4219 6.4375 26.625C12.3438 32.3203 18.25 32.25 20.5 32.25C22.75 32.25 28.5859 32.3203 34.4922 26.625C40.1875 21.4219 40.6797 14.5312 40.75 12.5625C40.75 12.2812 40.4688 12 40.1875 12ZM20.4297 19.8047C21.3438 18.4688 22.3984 17.2734 23.5938 16.2891C24.9297 14.9531 26.3359 13.8984 27.8125 13.0547C26.6172 8.13281 24.1562 3.70312 20.9922 0.960938C20.7109 0.75 20.2188 0.75 19.9375 0.960938C16.7734 3.70312 14.3125 8.13281 13.1172 13.0547C14.5938 13.8984 16 14.8828 17.2656 16.2188C18.5312 17.2734 19.5859 18.4688 20.4297 19.8047Z" fill="#EC6746"/>
</svg>
