<svg width="28" height="22" viewBox="0 0 28 22" fill="none" xmlns="http://www.w3.org/2000/svg">
<path d="M27.625 8C26.2656 8.04688 21.2969 8.32812 17.5938 11.8906C16.0469 13.2969 15.1094 14.8906 14.5 16.3438C13.8438 14.8906 12.9062 13.2969 11.3594 11.8906C7.65625 8.32812 2.6875 8.04688 1.32812 8C1.14062 8 0.953125 8.1875 1 8.375C1 9.6875 1.32812 14.2812 5.125 17.75C9.0625 21.5469 13 21.5 14.5 21.5C16 21.5 19.8906 21.5469 23.8281 17.75C27.625 14.2812 27.9531 9.6875 28 8.375C28 8.1875 27.8125 8 27.625 8ZM14.4531 13.2031C15.0625 12.3125 15.7656 11.5156 16.5625 10.8594C17.4531 9.96875 18.3906 9.26562 19.375 8.70312C18.5781 5.42188 16.9375 2.46875 14.8281 0.640625C14.6406 0.5 14.3125 0.5 14.125 0.640625C12.0156 2.46875 10.375 5.42188 9.57812 8.70312C10.5625 9.26562 11.5 9.92188 12.3438 10.8125C13.1875 11.5156 13.8906 12.3125 14.4531 13.2031Z" fill="white"/>
</svg>
