<svg width="18" height="10" viewBox="0 0 18 10" fill="none" xmlns="http://www.w3.org/2000/svg">
<path d="M13.125 0.375H4.375C1.94141 0.375 0 2.34375 0 4.75C0 7.18359 1.94141 9.125 4.375 9.125C5.57812 9.125 6.69922 8.63281 7.49219 7.8125H9.98047C10.7734 8.63281 11.8945 9.15234 13.125 9.15234C15.5312 9.15234 17.5 7.18359 17.5 4.77734C17.5 2.34375 15.5312 0.402344 13.125 0.375ZM6.78125 5.07812C6.78125 5.26953 6.61719 5.40625 6.45312 5.40625H5.03125V6.82812C5.03125 7.01953 4.86719 7.15625 4.70312 7.15625H4.04688C3.85547 7.15625 3.71875 7.01953 3.71875 6.82812V5.40625H2.29688C2.10547 5.40625 1.96875 5.26953 1.96875 5.07812V4.42188C1.96875 4.25781 2.10547 4.09375 2.29688 4.09375H3.71875V2.67188C3.71875 2.50781 3.85547 2.34375 4.04688 2.34375H4.70312C4.86719 2.34375 5.03125 2.50781 5.03125 2.67188V4.09375H6.45312C6.61719 4.09375 6.78125 4.25781 6.78125 4.42188V5.07812ZM12.6875 7.15625C12.0586 7.15625 11.5938 6.69141 11.5938 6.0625C11.5938 5.46094 12.0586 4.96875 12.6875 4.96875C13.2891 4.96875 13.7812 5.46094 13.7812 6.0625C13.7812 6.69141 13.2891 7.15625 12.6875 7.15625ZM14.4375 4.53125C13.8086 4.53125 13.3438 4.06641 13.3438 3.4375C13.3438 2.83594 13.8086 2.34375 14.4375 2.34375C15.0391 2.34375 15.5312 2.83594 15.5312 3.4375C15.5312 4.06641 15.0391 4.53125 14.4375 4.53125Z" fill="#0A2240"/>
</svg>
