<svg width="31" height="24" viewBox="0 0 31 24" fill="none" xmlns="http://www.w3.org/2000/svg">
<path d="M14.75 18H27.5C28.2969 18 29 17.3438 29 16.5C29 10.7344 24.2656 6 18.5 6V3H26.75C27.125 3 27.5 2.67188 27.5 2.25V0.75C27.5 0.375 27.125 0 26.75 0H7.25C6.82812 0 6.5 0.375 6.5 0.75V2.25C6.5 2.67188 6.82812 3 7.25 3H15.5V6H5.75L3.6875 3.32812C3.54688 3.14062 3.35938 3 3.125 3H1.25C0.734375 3 0.359375 3.46875 0.5 3.9375L2 9L9.5 12L13.5312 17.4375C13.8125 17.7656 14.2344 18 14.75 18ZM20 9.1875C22.9062 9.79688 25.25 12.0938 25.8125 15H20V9.1875ZM30.2656 21.5156L29.2344 20.4844C28.9062 20.2031 28.4375 20.2031 28.1562 20.4844C27.8281 20.8125 27.5 21 26.9844 21H11.75C11.3281 21 11 21.375 11 21.75V23.25C11 23.6719 11.3281 24 11.75 24H26.9844C27.6875 24 28.6719 24 30.2188 22.6406C30.5469 22.3594 30.5469 21.8438 30.2656 21.5156Z" fill="white"/>
</svg>
