<svg width="27" height="24" viewBox="0 0 27 24" fill="none" xmlns="http://www.w3.org/2000/svg">
<path fill-rule="evenodd" clip-rule="evenodd" d="M7.73703 21.9999L11.2474 22.9285V21.7142L11.534 21.4285H13.5399V22.857V23.857H11.3907L8.73998 22.7142L7.73703 21.9999Z" fill="#CDBDB2"/>
<path fill-rule="evenodd" clip-rule="evenodd" d="M19.1993 21.9999L15.7606 22.9285V21.7142L15.4741 21.4285H13.4682V22.857V23.857H15.6174L18.2679 22.7142L19.1993 21.9999Z" fill="#CDBDB2"/>
<path fill-rule="evenodd" clip-rule="evenodd" d="M11.534 19.3572L11.2474 21.7143L11.6055 21.4286H15.3308L15.7606 21.7143L15.4741 19.3572L14.9009 19L12.0354 19.0715L11.534 19.3572Z" fill="#393939"/>
<path fill-rule="evenodd" clip-rule="evenodd" d="M9.59967 3.42847L11.319 7.42847L12.1071 19.0714H14.901L15.7606 7.42847L17.3367 3.42847H9.59967Z" fill="#F89C35"/>
<path fill-rule="evenodd" clip-rule="evenodd" d="M2.07761 12.2141L0.0717163 17.9998L5.08646 17.7141H8.31015V15.2141L8.16688 10.0713L7.45048 10.6427L2.07761 12.2141Z" fill="#F89D35"/>
<path fill-rule="evenodd" clip-rule="evenodd" d="M5.8744 12.8569L11.7488 12.9998L11.1041 15.9998L8.31014 15.2855L5.8744 12.8569Z" fill="#D87C30"/>
<path fill-rule="evenodd" clip-rule="evenodd" d="M5.8744 12.9285L8.31014 15.2142V17.4999L5.8744 12.9285Z" fill="#EA8D3A"/>
<path fill-rule="evenodd" clip-rule="evenodd" d="M8.31015 15.2856L11.1757 15.9999L12.1071 19.0714L11.4623 19.4285L8.31015 17.5714V15.2856Z" fill="#F89D35"/>
<path fill-rule="evenodd" clip-rule="evenodd" d="M8.31014 17.5713L7.73703 21.9999L11.534 19.3571L8.31014 17.5713Z" fill="#EB8F35"/>
<path fill-rule="evenodd" clip-rule="evenodd" d="M11.7488 13L12.1071 19.0715L11.0324 15.9643L11.7488 13Z" fill="#EA8E3A"/>
<path fill-rule="evenodd" clip-rule="evenodd" d="M5.01474 17.6428L8.31014 17.5713L7.73703 21.9999L5.01474 17.6428Z" fill="#D87C30"/>
<path fill-rule="evenodd" clip-rule="evenodd" d="M1.64778 23.9285L7.73704 21.9999L5.01475 17.6428L0.0717163 17.9999L1.64778 23.9285Z" fill="#EB8F35"/>
<path fill-rule="evenodd" clip-rule="evenodd" d="M11.319 7.42847L8.23856 9.99989L5.8744 12.857L11.7488 13.0714L11.319 7.42847Z" fill="#E8821E"/>
<path fill-rule="evenodd" clip-rule="evenodd" d="M7.73703 21.9997L11.534 19.3569L11.2474 21.6426V22.9284L8.6684 22.4283L7.73703 21.9997Z" fill="#DFCEC3"/>
<path fill-rule="evenodd" clip-rule="evenodd" d="M19.1993 21.9997L15.4741 19.3569L15.7606 21.6426V22.9284L18.3396 22.4283L19.1993 21.9997Z" fill="#DFCEC3"/>
<path fill-rule="evenodd" clip-rule="evenodd" d="M10.1728 14.2856L10.9609 15.9286L8.16689 15.2143L10.1728 14.2856Z" fill="#393939"/>
<path fill-rule="evenodd" clip-rule="evenodd" d="M1.57608 0.0712891L11.319 7.42837L9.67137 3.42837L1.57608 0.0712891Z" fill="#E88F35"/>
<path fill-rule="evenodd" clip-rule="evenodd" d="M1.57608 0.0712891L0.286575 3.99986L1.00297 8.28557L0.501493 8.57129L1.21788 9.21415L0.644771 9.71415L1.4328 10.4284L0.931328 10.857L2.07755 12.2856L7.45049 10.6427C10.0773 8.54748 11.3668 7.47605 11.319 7.42843C11.2712 7.38081 8.0236 4.92843 1.57608 0.0712891Z" fill="#8E5A30"/>
<path fill-rule="evenodd" clip-rule="evenodd" d="M24.8587 12.2141L26.8646 17.9998L21.8499 17.7141H18.6262V15.2141L18.7695 10.0713L19.4859 10.6427L24.8587 12.2141Z" fill="#F89D35"/>
<path fill-rule="evenodd" clip-rule="evenodd" d="M21.0619 12.8569L15.1875 12.9998L15.8322 15.9998L18.6262 15.2855L21.0619 12.8569Z" fill="#D87C30"/>
<path fill-rule="evenodd" clip-rule="evenodd" d="M21.0619 12.9285L18.6262 15.2142V17.4999L21.0619 12.9285Z" fill="#EA8D3A"/>
<path fill-rule="evenodd" clip-rule="evenodd" d="M18.6262 15.2856L15.7606 15.9999L14.8293 19.0714L15.4741 19.4285L18.6262 17.5714V15.2856Z" fill="#F89D35"/>
<path fill-rule="evenodd" clip-rule="evenodd" d="M18.6262 17.5713L19.1993 21.9999L15.4741 19.4284L18.6262 17.5713Z" fill="#EB8F35"/>
<path fill-rule="evenodd" clip-rule="evenodd" d="M15.1875 13L14.8292 19.0715L15.9039 15.9643L15.1875 13Z" fill="#EA8E3A"/>
<path fill-rule="evenodd" clip-rule="evenodd" d="M21.9216 17.6428L18.6262 17.5713L19.1993 21.9999L21.9216 17.6428Z" fill="#D87C30"/>
<path fill-rule="evenodd" clip-rule="evenodd" d="M25.2886 23.9285L19.1993 21.9999L21.9216 17.6428L26.8646 17.9999L25.2886 23.9285Z" fill="#EB8F35"/>
<path fill-rule="evenodd" clip-rule="evenodd" d="M15.6173 7.42847L18.6978 9.99989L21.0619 12.857L15.1875 13.0714L15.6173 7.42847Z" fill="#E8821E"/>
<path fill-rule="evenodd" clip-rule="evenodd" d="M16.7636 14.2856L15.9755 15.9286L18.7695 15.2143L16.7636 14.2856Z" fill="#393939"/>
<path fill-rule="evenodd" clip-rule="evenodd" d="M25.3603 0.0712891L15.6173 7.42837L17.265 3.42837L25.3603 0.0712891Z" fill="#E88F35"/>
<path fill-rule="evenodd" clip-rule="evenodd" d="M25.3603 0.0712891L26.6498 3.99986L25.9334 8.28557L26.4349 8.57129L25.7185 9.21415L26.2916 9.71415L25.5036 10.4284L26.005 10.857L24.8588 12.2856L19.4859 10.6427C16.8591 8.54748 15.5696 7.47605 15.6173 7.42843C15.6651 7.38081 18.9127 4.92843 25.3603 0.0712891Z" fill="#8E5A30"/>
</svg>
