<svg width="21" height="22" viewBox="0 0 21 22" fill="none" xmlns="http://www.w3.org/2000/svg">
<path d="M18.75 0.5H2.25C0.984375 0.5 0 1.53125 0 2.75V19.25C0 20.5156 0.984375 21.5 2.25 21.5H18.75C19.9688 21.5 21 20.5156 21 19.25V2.75C21 1.53125 19.9688 0.5 18.75 0.5ZM11.25 14H9V16.25C9 16.6719 8.625 17 8.25 17H6.75C6.32812 17 6 16.6719 6 16.25V5.75C6 5.375 6.32812 5 6.75 5H11.25C13.6875 5 15.75 7.0625 15.75 9.5C15.75 11.9844 13.6875 14 11.25 14ZM11.25 8H9V11H11.25C12.0469 11 12.75 10.3438 12.75 9.5C12.75 8.70312 12.0469 8 11.25 8Z" fill="white"/>
</svg>
