<svg width="25" height="24" viewBox="0 0 25 24" fill="none" xmlns="http://www.w3.org/2000/svg">
<path d="M19.9062 8.34375C19.9531 8.71875 20.2344 9 20.6094 9H21.4062C21.8281 9 22.2031 8.625 22.1562 8.15625C21.9219 6.32812 21.0781 4.6875 19.7656 3.60938C18.9688 2.95312 18.4531 1.875 18.2656 0.703125C18.2188 0.328125 17.9375 0 17.5625 0H16.8125C16.3438 0 16.0156 0.421875 16.0625 0.890625C16.25 2.71875 17.0938 4.35938 18.4062 5.4375C19.2031 6.09375 19.7656 7.17188 19.9062 8.34375ZM14.8438 8.34375C14.8906 8.71875 15.1719 9 15.5469 9H16.3438C16.7656 9 17.1406 8.625 17.0938 8.15625C16.8594 6.32812 16.0156 4.6875 14.7031 3.60938C13.9062 2.95312 13.3906 1.875 13.2031 0.703125C13.1562 0.328125 12.875 0 12.5 0H11.75C11.2812 0 10.9531 0.421875 11 0.890625C11.1875 2.71875 12.0312 4.35938 13.3438 5.4375C14.1406 6.09375 14.7031 7.17188 14.8438 8.34375ZM23 12H12.5L7.29688 8.10938C6.78125 7.73438 6.17188 7.5 5.46875 7.5H3.5C1.8125 7.5 0.5 8.85938 0.5 10.5V21C0.5 22.6875 1.8125 24 3.5 24H21.5C23.1406 24 24.5 22.6875 24.5 21V13.5C24.5 12.7031 23.7969 12 23 12ZM6.5 20.625C6.5 20.8594 6.3125 21 6.125 21H5.375C5.14062 21 5 20.8594 5 20.625V15.375C5 15.1875 5.14062 15 5.375 15H6.125C6.3125 15 6.5 15.1875 6.5 15.375V20.625ZM11 20.625C11 20.8594 10.8125 21 10.625 21H9.875C9.64062 21 9.5 20.8594 9.5 20.625V15.375C9.5 15.1875 9.64062 15 9.875 15H10.625C10.8125 15 11 15.1875 11 15.375V20.625ZM15.5 20.625C15.5 20.8594 15.3125 21 15.125 21H14.375C14.1406 21 14 20.8594 14 20.625V15.375C14 15.1875 14.1406 15 14.375 15H15.125C15.3125 15 15.5 15.1875 15.5 15.375V20.625ZM20 20.625C20 20.8594 19.8125 21 19.625 21H18.875C18.6406 21 18.5 20.8594 18.5 20.625V15.375C18.5 15.1875 18.6406 15 18.875 15H19.625C19.8125 15 20 15.1875 20 15.375V20.625ZM3.5 6C5.14062 6 6.5 4.6875 6.5 3C6.5 1.35938 5.14062 0 3.5 0C1.8125 0 0.5 1.35938 0.5 3C0.5 4.6875 1.8125 6 3.5 6Z" fill="white"/>
</svg>
