<svg width="36" height="27" viewBox="0 0 36 27" fill="none" xmlns="http://www.w3.org/2000/svg">
<path d="M23.3438 18H26.0859C26.5078 18 27 17.5781 27 17.1562V7.66406C27 7.24219 26.5078 6.75 26.0859 6.75H23.3438C22.9219 6.75 22.5 7.24219 22.5 7.66406V17.1562C22.5 17.5781 22.9219 18 23.3438 18ZM30.0938 18H32.8359C33.2578 18 33.75 17.5781 33.75 17.1562V0.914062C33.75 0.492188 33.2578 0 32.8359 0H30.0938C29.6719 0 29.25 0.492188 29.25 0.914062V17.1562C29.25 17.5781 29.6719 18 30.0938 18ZM9.84375 18H12.5859C13.0078 18 13.5 17.5781 13.5 17.1562V12.1641C13.5 11.7422 13.0078 11.25 12.5859 11.25H9.84375C9.42188 11.25 9 11.7422 9 12.1641V17.1562C9 17.5781 9.42188 18 9.84375 18ZM16.5938 18H19.3359C19.7578 18 20.25 17.5781 20.25 17.1562V3.16406C20.25 2.74219 19.7578 2.25 19.3359 2.25H16.5938C16.1719 2.25 15.75 2.74219 15.75 3.16406V17.1562C15.75 17.5781 16.1719 18 16.5938 18ZM34.875 22.5H4.5V1.125C4.5 0.5625 3.9375 0 3.375 0H1.125C0.492188 0 0 0.5625 0 1.125V24.75C0 26.0156 0.984375 27 2.25 27H34.875C35.4375 27 36 26.5078 36 25.875V23.625C36 23.0625 35.4375 22.5 34.875 22.5Z" fill="#EC6746"/>
</svg>
