<svg width="35" height="37" viewBox="0 0 35 37" fill="none" xmlns="http://www.w3.org/2000/svg">
<path d="M8.45312 15.6875L1.07031 26.5859C0.859375 26.9375 1.07031 27.4297 1.49219 27.5L16.1172 29.0469L8.45312 15.6875ZM1.49219 22.7188L6.76562 14.1406L1.42188 10.9062C1.21094 10.7656 1 10.9062 1 11.1172V22.5781C1 22.8594 1.35156 22.9297 1.49219 22.7188ZM2.26562 30.3125L15.9062 36.5C16.2578 36.6406 16.75 36.3594 16.75 35.9375V31.3672L2.40625 29.8203C2.125 29.75 1.98438 30.1719 2.26562 30.3125ZM7.96094 12.1719L13.5859 2.11719C13.8672 1.625 13.3047 1.0625 12.8125 1.34375L2.19531 8.30469C2.05469 8.375 2.05469 8.65625 2.19531 8.79688L7.96094 12.1719ZM17.875 12.875H25.5391L18.7891 1.0625C18.5781 0.710938 18.2266 0.5 17.875 0.5C17.4531 0.5 17.1016 0.710938 16.8906 1.0625L10.1406 12.875H17.875ZM34.2578 10.9062L28.9141 14.1406L34.1875 22.7188C34.3281 22.9297 34.75 22.8594 34.75 22.5781V11.1172C34.75 10.9062 34.4688 10.7656 34.2578 10.9062ZM27.7188 12.1719L33.4844 8.79688C33.625 8.65625 33.625 8.375 33.4844 8.30469L22.8672 1.34375C22.375 1.0625 21.8125 1.625 22.0938 2.11719L27.7188 12.1719ZM33.2734 29.8203L19 31.3672V35.9375C19 36.3594 19.4219 36.6406 19.7734 36.5L33.4141 30.3125C33.6953 30.1719 33.625 29.75 33.2734 29.8203ZM27.2266 15.6875L19.5625 29.0469L34.1875 27.5C34.6094 27.4297 34.8203 26.9375 34.6094 26.5859L27.2266 15.6875ZM17.875 15.125H10.7734L17.875 27.5L24.9062 15.125H17.875Z" fill="#EC6746"/>
</svg>
