<svg width="18" height="10" viewBox="0 0 18 10" fill="none" xmlns="http://www.w3.org/2000/svg">
<path d="M5.16797 6.25391C5.27734 6.33594 5.57812 6.5 6.125 6.5C6.64453 6.5 6.94531 6.33594 7.05469 6.25391C7.49219 5.84375 7.98438 5.625 8.50391 5.625H8.96875C9.48828 5.625 9.98047 5.84375 10.418 6.25391C10.5273 6.33594 10.8281 6.5 11.375 6.5C11.8945 6.5 12.1953 6.33594 12.3047 6.25391C12.7148 5.87109 13.1797 5.67969 13.6445 5.65234L10.5547 3.4375L11.0469 3.08203C11.1562 3.02734 11.293 3 11.4023 3.02734L14.1367 3.60156C14.8477 3.76562 15.5586 3.30078 15.6953 2.58984C15.8594 1.90625 15.3945 1.19531 14.7109 1.03125L11.9492 0.457031C11.1016 0.265625 10.2266 0.457031 9.54297 0.949219L7.35547 2.53516C7.05469 2.72656 6.80859 2.97266 6.61719 3.24609L4.73047 5.92578C4.89453 6.03516 5.03125 6.11719 5.16797 6.25391ZM17.0625 7.375H16.625C15.8867 7.375 15.3672 7.15625 15.0664 6.91016C14.8477 6.66406 14.5469 6.5 14.2188 6.5H13.7539C13.4258 6.5 13.125 6.66406 12.9062 6.91016C12.6055 7.15625 12.0859 7.375 11.375 7.375C10.6367 7.375 10.1172 7.15625 9.81641 6.91016C9.59766 6.66406 9.29688 6.5 8.96875 6.5H8.50391C8.17578 6.5 7.875 6.66406 7.65625 6.91016C7.35547 7.15625 6.83594 7.375 6.125 7.375C5.38672 7.375 4.86719 7.15625 4.56641 6.91016C4.34766 6.66406 4.04688 6.5 3.71875 6.5H3.25391C2.92578 6.5 2.625 6.66406 2.40625 6.91016C2.10547 7.15625 1.58594 7.375 0.875 7.375H0.4375C0.191406 7.375 0 7.59375 0 7.8125V8.6875C0 8.93359 0.191406 9.125 0.4375 9.125H0.875C1.91406 9.125 2.84375 8.79688 3.5 8.27734C4.12891 8.79688 5.05859 9.125 6.125 9.125C7.16406 9.125 8.09375 8.79688 8.75 8.27734C9.37891 8.79688 10.3086 9.125 11.375 9.125C12.4141 9.125 13.3438 8.79688 14 8.27734C14.6289 8.79688 15.5586 9.125 16.625 9.125H17.0625C17.2812 9.125 17.5 8.93359 17.5 8.6875V7.8125C17.5 7.59375 17.2812 7.375 17.0625 7.375ZM3.0625 4.75C4.26562 4.75 5.25 3.79297 5.25 2.5625C5.25 1.35938 4.26562 0.375 3.0625 0.375C1.83203 0.375 0.875 1.35938 0.875 2.5625C0.875 3.79297 1.83203 4.75 3.0625 4.75Z" fill="#0A2240"/>
</svg>
