<svg width="32" height="37" viewBox="0 0 32 37" fill="none" xmlns="http://www.w3.org/2000/svg">
<path d="M9.25 10.9062C9.25 11.3984 9.60156 11.75 10.0938 11.75H12.9062C13.3281 11.75 13.75 11.3984 13.75 10.9062V8.09375C13.75 7.67188 13.3281 7.25 12.9062 7.25H10.0938C9.60156 7.25 9.25 7.67188 9.25 8.09375V10.9062ZM19.0938 11.75H21.9062C22.3281 11.75 22.75 11.3984 22.75 10.9062V8.09375C22.75 7.67188 22.3281 7.25 21.9062 7.25H19.0938C18.6016 7.25 18.25 7.67188 18.25 8.09375V10.9062C18.25 11.3984 18.6016 11.75 19.0938 11.75ZM10.0938 18.5H12.9062C13.3281 18.5 13.75 18.1484 13.75 17.6562V14.8438C13.75 14.4219 13.3281 14 12.9062 14H10.0938C9.60156 14 9.25 14.4219 9.25 14.8438V17.6562C9.25 18.1484 9.60156 18.5 10.0938 18.5ZM19.0938 18.5H21.9062C22.3281 18.5 22.75 18.1484 22.75 17.6562V14.8438C22.75 14.4219 22.3281 14 21.9062 14H19.0938C18.6016 14 18.25 14.4219 18.25 14.8438V17.6562C18.25 18.1484 18.6016 18.5 19.0938 18.5ZM13.75 24.4062V21.5938C13.75 21.1719 13.3281 20.75 12.9062 20.75H10.0938C9.60156 20.75 9.25 21.1719 9.25 21.5938V24.4062C9.25 24.8984 9.60156 25.25 10.0938 25.25H12.9062C13.3281 25.25 13.75 24.8984 13.75 24.4062ZM19.0938 25.25H21.9062C22.3281 25.25 22.75 24.8984 22.75 24.4062V21.5938C22.75 21.1719 22.3281 20.75 21.9062 20.75H19.0938C18.6016 20.75 18.25 21.1719 18.25 21.5938V24.4062C18.25 24.8984 18.6016 25.25 19.0938 25.25ZM31.75 33.9688C31.75 33.5469 31.3281 33.125 30.9062 33.125H29.5V2.1875C29.5 1.27344 28.7266 0.5 27.8125 0.5H4.11719C3.20312 0.5 2.42969 1.27344 2.42969 2.1875V33.125H1.09375C0.601562 33.125 0.25 33.5469 0.25 33.9688V36.5H31.75V33.9688ZM5.80469 33.0547L5.875 3.875L26.125 3.94531V33.0547H18.25V28.3438C18.25 27.9219 17.8281 27.5 17.4062 27.5H14.5938C14.1016 27.5 13.75 27.9219 13.75 28.3438V33.0547H5.80469Z" fill="#EC6746"/>
</svg>
