<svg width="14" height="13" viewBox="0 0 14 13" fill="none" xmlns="http://www.w3.org/2000/svg">
<path d="M12.6055 3.25H2.1875C1.94141 3.25 1.75 3.05859 1.75 2.8125C1.75 2.59375 1.94141 2.375 2.1875 2.375H12.6875C12.9062 2.375 13.125 2.18359 13.125 1.9375C13.125 1.22656 12.5234 0.625 11.8125 0.625H1.75C0.765625 0.625 0 1.41797 0 2.375V11.125C0 12.1094 0.765625 12.875 1.75 12.875H12.6055C13.3711 12.875 14 12.3008 14 11.5625V4.5625C14 3.85156 13.3711 3.25 12.6055 3.25ZM11.375 8.9375C10.8828 8.9375 10.5 8.55469 10.5 8.0625C10.5 7.59766 10.8828 7.1875 11.375 7.1875C11.8398 7.1875 12.25 7.59766 12.25 8.0625C12.25 8.55469 11.8398 8.9375 11.375 8.9375Z" fill="#0A2240"/>
</svg>
