<svg width="19" height="15" viewBox="0 0 19 15" fill="none" xmlns="http://www.w3.org/2000/svg">
<path d="M16.7227 9.66406C16.7227 9.60938 16.75 9.55469 16.75 9.52734C16.75 8.54297 15.957 7.77734 15 7.77734C14.6445 7.77734 14.3164 7.85938 14.043 8.05078C13.5781 6.98438 12.5117 6.24609 11.2812 6.24609C9.58594 6.24609 8.21875 7.61328 8.21875 9.30859C8.21875 9.39062 8.21875 9.44531 8.21875 9.52734C6.87891 9.63672 5.8125 10.7578 5.8125 12.1523C5.8125 13.6016 6.98828 14.7773 8.4375 14.7773H15.875C17.3242 14.7773 18.5 13.6016 18.5 12.1523C18.5 10.9766 17.7344 10.0195 16.7227 9.66406ZM4.9375 9.0625C3.76172 7.85938 3.76172 5.91797 4.9375 4.71484C6.14062 3.53906 8.08203 3.53906 9.28516 4.71484C9.53125 4.98828 9.75 5.28906 9.88672 5.61719C10.1602 5.50781 10.4336 5.45312 10.7344 5.39844L11.5547 2.99219C11.6641 2.66406 11.3359 2.33594 11.0078 2.44531L8.62891 3.26562L7.48047 0.996094C7.34375 0.695312 6.90625 0.695312 6.74219 0.996094L5.62109 3.26562L3.21484 2.44531C2.88672 2.33594 2.58594 2.66406 2.66797 2.99219L3.48828 5.37109L1.21875 6.51953C0.917969 6.65625 0.917969 7.09375 1.21875 7.25781L3.48828 8.37891L2.66797 10.7852C2.55859 11.1133 2.88672 11.4141 3.21484 11.3047L5.29297 10.6211C5.45703 10.293 5.67578 9.96484 5.92188 9.71875C5.56641 9.55469 5.23828 9.33594 4.9375 9.0625ZM4.82812 6.875C4.82812 7.99609 5.62109 8.92578 6.66016 9.14453C6.87891 9.00781 7.125 8.89844 7.37109 8.81641C7.50781 7.61328 8.21875 6.54688 9.20312 5.94531C8.84766 5.15234 8.05469 4.57812 7.125 4.57812C5.83984 4.57812 4.82812 5.61719 4.82812 6.875Z" fill="#0A2240"/>
</svg>
