<svg width="18" height="15" viewBox="0 0 18 15" fill="none" xmlns="http://www.w3.org/2000/svg">
<path d="M13.5625 6.875C11.375 6.875 9.625 8.65234 9.625 10.8125C9.625 13 11.375 14.75 13.5625 14.75C15.7227 14.75 17.5 13 17.5 10.8125C17.5 8.65234 15.7227 6.875 13.5625 6.875ZM15.3125 11.0039C15.3125 11.1406 15.1758 11.25 15.0391 11.25H13.3711C13.2344 11.25 13.125 11.1406 13.125 11.0039V8.89844C13.125 8.76172 13.2344 8.65234 13.3711 8.65234H13.7266C13.8633 8.65234 14 8.76172 14 8.89844V10.375H15.0391C15.1758 10.375 15.3125 10.5117 15.3125 10.6484V11.0039ZM13.5625 6C13.6992 6 13.8359 6.02734 14 6.02734V4.6875C14 4.00391 13.3711 3.375 12.6875 3.375H10.5V2.0625C10.5 1.37891 9.87109 0.75 9.1875 0.75H4.8125C4.10156 0.75 3.5 1.37891 3.5 2.0625V3.375H1.3125C0.601562 3.375 0 4.00391 0 4.6875V6.875H10.8008C11.5664 6.32812 12.5234 6 13.5625 6ZM8.75 3.375H5.25V2.5H8.75V3.375ZM8.91406 9.5H5.6875C5.44141 9.5 5.25 9.30859 5.25 9.0625V7.75H0V11.6875C0 12.3984 0.601562 13 1.3125 13H9.26953C8.94141 12.3438 8.75 11.6055 8.75 10.8125C8.75 10.375 8.80469 9.9375 8.91406 9.5Z" fill="#0A2240"/>
</svg>
